<?xml version="1.0" encoding="UTF-8"?>
<!DOCTYPE svg PUBLIC "-//W3C//DTD SVG 1.1//EN" "http://www.w3.org/Graphics/SVG/1.1/DTD/svg11.dtd">
<svg xmlns="http://www.w3.org/2000/svg" version="1.1" width="204px" height="100px" style="shape-rendering:geometricPrecision; text-rendering:geometricPrecision; image-rendering:optimizeQuality; fill-rule:evenodd; clip-rule:evenodd" xmlns:xlink="http://www.w3.org/1999/xlink">
<g><path style="opacity:0.942" fill="#c62b49" d="M 98.5,10.5 C 101.999,10.259 102.332,11.0924 99.5,13C 93.4778,16.6783 87.8111,20.845 82.5,25.5C 81.3997,33.498 80.233,41.498 79,49.5C 77.3375,40.205 76.3375,30.8717 76,21.5C 83.6373,17.9305 91.1373,14.2639 98.5,10.5 Z"/></g>
<g><path style="opacity:0.983" fill="#d12f51" d="M 99.5,20.5 C 111.99,21.8317 117.824,28.8317 117,41.5C 118,42.1667 119,42.8333 120,43.5C 121.167,36.8333 122.333,30.1667 123.5,23.5C 125.333,32.8053 125.999,42.1387 125.5,51.5C 117.286,55.6168 108.952,59.1168 100.5,62C 105.977,58.0242 111.31,53.8575 116.5,49.5C 114.772,47.7745 112.772,46.4411 110.5,45.5C 110.446,46.6869 110.113,48.0202 109.5,49.5C 100.956,53.3385 93.789,51.6718 88,44.5C 83.5444,32.4135 87.3777,24.4135 99.5,20.5 Z"/></g>
<g><path style="opacity:0.663" fill="#000000" d="M 29.5,66.5 C 38.7911,64.7017 42.6244,68.3684 41,77.5C 39.8333,78.6667 38.6667,79.8333 37.5,81C 38.8333,81 40.1667,81 41.5,81C 42.4581,82.1475 42.1247,83.1475 40.5,84C 35.2587,84.1168 30.7587,82.2835 27,78.5C 24.5226,73.6692 25.356,69.6692 29.5,66.5 Z M 31.5,69.5 C 36.4943,69.329 38.3276,71.6624 37,76.5C 34.6667,79.1667 32.3333,79.1667 30,76.5C 29.1668,73.829 29.6668,71.4957 31.5,69.5 Z"/></g>
<g><path style="opacity:0.695" fill="#000000" d="M 43.5,66.5 C 44.5,66.5 45.5,66.5 46.5,66.5C 46.3354,69.5184 46.502,72.5184 47,75.5C 48.0302,77.7764 49.5302,78.4431 51.5,77.5C 52.4892,73.8927 52.8226,70.226 52.5,66.5C 53.8333,66.5 55.1667,66.5 56.5,66.5C 56.6655,70.5138 56.4988,74.5138 56,78.5C 52,82.5 48,82.5 44,78.5C 43.5012,74.5138 43.3345,70.5138 43.5,66.5 Z"/></g>
<g><path style="opacity:0.623" fill="#000000" d="M 62.5,66.5 C 64.1667,66.5 65.8333,66.5 67.5,66.5C 69.0366,71.2467 70.8699,75.9133 73,80.5C 73.4992,75.8452 73.6658,71.1785 73.5,66.5C 74.8333,66.5 76.1667,66.5 77.5,66.5C 77.5,70.1667 77.5,73.8333 77.5,77.5C 79.5273,77.3379 81.5273,77.5045 83.5,78C 84.3366,79.0113 84.67,80.1779 84.5,81.5C 79.4889,81.6659 74.4889,81.4993 69.5,81C 68.0036,77.8507 66.5036,74.6841 65,71.5C 63.3921,74.3821 62.0587,77.3821 61,80.5C 59.6124,81.5536 58.1124,81.7203 56.5,81C 58.9243,76.3212 60.9243,71.4879 62.5,66.5 Z"/></g>
<g><path style="opacity:0.61" fill="#000000" d="M 85.5,66.5 C 86.8333,66.5 88.1667,66.5 89.5,66.5C 89.5,71.5 89.5,76.5 89.5,81.5C 88.1667,81.5 86.8333,81.5 85.5,81.5C 85.5,76.5 85.5,71.5 85.5,66.5 Z"/></g>
<g><path style="opacity:0.631" fill="#000000" d="M 92.5,66.5 C 93.8333,66.5 95.1667,66.5 96.5,66.5C 96.5,71.5 96.5,76.5 96.5,81.5C 95.1667,81.5 93.8333,81.5 92.5,81.5C 92.5,76.5 92.5,71.5 92.5,66.5 Z"/></g>
<g><path style="opacity:0.65" fill="#000000" d="M 98.5,66.5 C 99.8734,66.3433 101.207,66.51 102.5,67C 103.977,69.4449 105.81,71.6116 108,73.5C 108.497,71.1902 108.663,68.8568 108.5,66.5C 109.833,66.5 111.167,66.5 112.5,66.5C 112.5,71.5 112.5,76.5 112.5,81.5C 108.364,80.215 105.198,77.5483 103,73.5C 102.503,76.146 102.336,78.8127 102.5,81.5C 101.167,81.5 99.8333,81.5 98.5,81.5C 98.5,76.5 98.5,71.5 98.5,66.5 Z"/></g>
<g><path style="opacity:0.628" fill="#000000" d="M 115.5,66.5 C 118.777,66.2161 121.943,66.5495 125,67.5C 125.601,68.9653 125.101,69.9653 123.5,70.5C 121.802,69.3192 120.135,69.3192 118.5,70.5C 121.344,71.7159 123.844,73.3826 126,75.5C 126.63,77.9034 125.797,79.7367 123.5,81C 119.712,82.1163 116.378,81.4496 113.5,79C 114.126,78.2496 114.626,77.4162 115,76.5C 117.51,78.4763 120.01,78.6429 122.5,77C 119.898,76.0229 117.398,74.8563 115,73.5C 114.297,71.0709 114.463,68.7375 115.5,66.5 Z"/></g>
<g><path style="opacity:0.632" fill="#000000" d="M 127.5,66.5 C 128.833,66.5 130.167,66.5 131.5,66.5C 131.5,71.5 131.5,76.5 131.5,81.5C 130.167,81.5 128.833,81.5 127.5,81.5C 127.5,76.5 127.5,71.5 127.5,66.5 Z"/></g>
<g><path style="opacity:0.659" fill="#000000" d="M 136.5,66.5 C 139.518,66.3354 142.518,66.502 145.5,67C 147.125,67.8525 147.458,68.8525 146.5,70C 144.189,69.8446 141.856,69.8446 139.5,70C 135.239,73.7481 135.905,76.5814 141.5,78.5C 143.217,77.3315 143.884,75.6648 143.5,73.5C 144.833,73.5 146.167,73.5 147.5,73.5C 148.804,79.0266 146.638,81.6933 141,81.5C 133.841,80.6071 131.508,76.6071 134,69.5C 135.045,68.6266 135.878,67.6266 136.5,66.5 Z"/></g>
<g><path style="opacity:0.618" fill="#000000" d="M 149.5,66.5 C 150.833,66.5 152.167,66.5 153.5,66.5C 153.5,68.1667 153.5,69.8333 153.5,71.5C 155.5,71.5 157.5,71.5 159.5,71.5C 159.5,69.8333 159.5,68.1667 159.5,66.5C 160.833,66.5 162.167,66.5 163.5,66.5C 163.5,71.5 163.5,76.5 163.5,81.5C 162.167,81.5 160.833,81.5 159.5,81.5C 159.5,79.5 159.5,77.5 159.5,75.5C 157.5,75.5 155.5,75.5 153.5,75.5C 153.5,77.5 153.5,79.5 153.5,81.5C 152.167,81.5 150.833,81.5 149.5,81.5C 149.5,76.5 149.5,71.5 149.5,66.5 Z"/></g>
<g><path style="opacity:0.688" fill="#000000" d="M 164.5,66.5 C 168.5,66.5 172.5,66.5 176.5,66.5C 176.5,67.5 176.5,68.5 176.5,69.5C 175.167,69.5 173.833,69.5 172.5,69.5C 172.5,73.5 172.5,77.5 172.5,81.5C 171.167,81.5 169.833,81.5 168.5,81.5C 168.5,77.5 168.5,73.5 168.5,69.5C 167.167,69.5 165.833,69.5 164.5,69.5C 164.5,68.5 164.5,67.5 164.5,66.5 Z"/></g>
<g><path style="opacity:0.3" fill="#000000" d="M 25.5,85.5 C 30.0731,86.736 34.4064,86.736 38.5,85.5C 41.2464,86.0963 42.0798,87.7629 41,90.5C 40.2753,91.0585 39.4419,91.3918 38.5,91.5C 34.5237,90.7895 30.1904,90.7895 25.5,91.5C 25.5,89.5 25.5,87.5 25.5,85.5 Z M 29.5,86.5 C 31.8519,87.5426 32.0185,88.8759 30,90.5C 29.51,89.2068 29.3433,87.8734 29.5,86.5 Z M 37.5,87.5 C 39.337,87.6395 39.6704,88.3061 38.5,89.5C 37.7025,89.0431 37.3691,88.3764 37.5,87.5 Z"/></g>
<g><path style="opacity:0.385" fill="#000000" d="M 42.5,85.5 C 43.5,85.5 44.5,85.5 45.5,85.5C 45.5,87.5 45.5,89.5 45.5,91.5C 44.5,91.5 43.5,91.5 42.5,91.5C 42.5,89.5 42.5,87.5 42.5,85.5 Z"/></g>
<g><path style="opacity:0.319" fill="#000000" d="M 46.5,85.5 C 48.0968,86.7373 49.2635,88.404 50,90.5C 50.2022,88.7444 50.7022,87.0777 51.5,85.5C 53.4765,91.8577 54.4765,91.8577 54.5,85.5C 57.3646,85.0548 59.8646,85.7215 62,87.5C 62.3333,86.8333 62.6667,86.1667 63,85.5C 63.8077,87.5787 63.641,89.5787 62.5,91.5C 61.8076,90.9747 61.3076,90.3081 61,89.5C 56.4816,91.407 51.6483,92.0736 46.5,91.5C 46.5,89.5 46.5,87.5 46.5,85.5 Z"/></g>
<g><path style="opacity:0.316" fill="#000000" d="M 65.5,85.5 C 70.1585,85.0146 71.4919,86.848 69.5,91C 64.7282,91.8104 63.3948,89.9771 65.5,85.5 Z M 66.5,87.5 C 68.337,87.6395 68.6704,88.3061 67.5,89.5C 66.7025,89.0431 66.3691,88.3764 66.5,87.5 Z"/></g>
<g><path style="opacity:0.392" fill="#000000" d="M 71.5,85.5 C 72.5,85.5 73.5,85.5 74.5,85.5C 74.5,87.5 74.5,89.5 74.5,91.5C 73.5,91.5 72.5,91.5 71.5,91.5C 71.5,89.5 71.5,87.5 71.5,85.5 Z"/></g>
<g><path style="opacity:0.324" fill="#000000" d="M 80.5,85.5 C 82.5273,85.3379 84.5273,85.5045 86.5,86C 87.5,89.3333 88.5,89.3333 89.5,86C 91.4727,85.5045 93.4727,85.3379 95.5,85.5C 95.8333,89.5 96.1667,89.5 96.5,85.5C 100.03,84.9889 103.196,85.6556 106,87.5C 106.674,86.4216 107.674,85.7549 109,85.5C 111.363,86.1513 113.863,86.1513 116.5,85.5C 116.5,87.5 116.5,89.5 116.5,91.5C 104.526,91.1353 92.5257,91.1353 80.5,91.5C 80.5,89.5 80.5,87.5 80.5,85.5 Z M 102.5,87.5 C 104.337,87.6395 104.67,88.3061 103.5,89.5C 102.702,89.0431 102.369,88.3764 102.5,87.5 Z M 108.5,87.5 C 110.337,87.6395 110.67,88.3061 109.5,89.5C 108.702,89.0431 108.369,88.3764 108.5,87.5 Z"/></g>
<g><path style="opacity:0.391" fill="#000000" d="M 117.5,85.5 C 122.159,85.0146 123.492,86.848 121.5,91C 120.207,91.49 118.873,91.6567 117.5,91.5C 117.5,89.5 117.5,87.5 117.5,85.5 Z M 118.5,87.5 C 120.337,87.6395 120.67,88.3061 119.5,89.5C 118.702,89.0431 118.369,88.3764 118.5,87.5 Z"/></g>
<g><path style="opacity:0.325" fill="#000000" d="M 125.5,85.5 C 128.144,85.1601 130.477,85.8267 132.5,87.5C 136.592,85.4878 140.925,84.9878 145.5,86C 146.718,87.4161 148.051,87.2494 149.5,85.5C 151.122,87.854 152.622,87.854 154,85.5C 155.378,87.854 156.878,87.854 158.5,85.5C 159.672,85.9186 160.672,86.5853 161.5,87.5C 162.192,86.9747 162.692,86.3081 163,85.5C 163.667,87.5 163.667,89.5 163,91.5C 161.983,88.972 160.816,88.972 159.5,91.5C 158.719,90.2713 158.219,88.938 158,87.5C 157.593,91.3305 156.26,91.9972 154,89.5C 153.577,90.9561 152.744,91.4561 151.5,91C 150.929,89.7949 150.262,88.6283 149.5,87.5C 148.5,88.8333 147.5,90.1667 146.5,91.5C 145.833,90.5 145.167,89.5 144.5,88.5C 144.002,89.6034 143.669,90.6034 143.5,91.5C 141.013,91.2176 138.347,91.2176 135.5,91.5C 135.657,90.1266 135.49,88.7932 135,87.5C 133.221,92.7682 131.555,92.7682 130,87.5C 129.51,88.7932 129.343,90.1266 129.5,91.5C 128.167,91.5 126.833,91.5 125.5,91.5C 125.5,89.5 125.5,87.5 125.5,85.5 Z"/></g>
<g><path style="opacity:0.296" fill="#000000" d="M 164.5,85.5 C 165.833,85.5 167.167,85.5 168.5,85.5C 168.5,87.5 168.5,89.5 168.5,91.5C 167.167,91.5 165.833,91.5 164.5,91.5C 164.5,89.5 164.5,87.5 164.5,85.5 Z"/></g>
<g><path style="opacity:0.352" fill="#000000" d="M 169.5,85.5 C 172.062,86.3715 174.728,86.3715 177.5,85.5C 177.5,87.5 177.5,89.5 177.5,91.5C 174.788,91.2625 172.288,91.2625 170,91.5C 169.505,89.5273 169.338,87.5273 169.5,85.5 Z"/></g>
<g><path style="opacity:0.248" fill="#000000" d="M 75.5,89.5 C 77.9732,89.9473 78.1399,90.9473 76,92.5C 75.5172,91.552 75.3505,90.552 75.5,89.5 Z"/></g>
</svg>
